<svg width="33" height="38" viewBox="0 0 33 38" fill="none" xmlns="http://www.w3.org/2000/svg">
<g filter="url(#filter0_d_128_627)">
<path d="M17.7938 2.61067C19.8087 0.0126657 22.6099 0 22.6099 0C22.6099 0 23.0266 2.44257 21.0249 4.79554C18.8876 7.30799 16.4582 6.89687 16.4582 6.89687C16.4582 6.89687 16.002 4.92092 17.7938 2.61067ZM16.7145 8.60788C17.751 8.60788 19.6749 7.21396 22.179 7.21396C26.4893 7.21396 28.185 10.2145 28.185 10.2145C28.185 10.2145 24.8686 11.8733 24.8686 15.8983C24.8686 20.4389 29 22.0038 29 22.0038C29 22.0038 26.112 29.9559 22.2111 29.9559C20.4194 29.9559 19.0264 28.7748 17.1387 28.7748C15.2148 28.7748 13.3057 30 12.0623 30C8.50021 30.0001 4 22.4566 4 16.3929C4 10.4271 7.80913 7.29755 11.3819 7.29755C13.7046 7.29755 15.507 8.60788 16.7145 8.60788Z" fill="black"/>
</g>
<defs>
<filter id="filter0_d_128_627" x="0" y="0" width="33" height="38" filterUnits="userSpaceOnUse" color-interpolation-filters="sRGB">
<feFlood flood-opacity="0" result="BackgroundImageFix"/>
<feColorMatrix in="SourceAlpha" type="matrix" values="0 0 0 0 0 0 0 0 0 0 0 0 0 0 0 0 0 0 127 0" result="hardAlpha"/>
<feOffset dy="4"/>
<feGaussianBlur stdDeviation="2"/>
<feComposite in2="hardAlpha" operator="out"/>
<feColorMatrix type="matrix" values="0 0 0 0 0 0 0 0 0 0 0 0 0 0 0 0 0 0 0.25 0"/>
<feBlend mode="normal" in2="BackgroundImageFix" result="effect1_dropShadow_128_627"/>
<feBlend mode="normal" in="SourceGraphic" in2="effect1_dropShadow_128_627" result="shape"/>
</filter>
</defs>
</svg>
